<svg version="1.0" preserveAspectRatio="xMidYMid meet" viewBox="9.75 85.49999794800001 207.75000000000003 174.74999580600002" zoomAndPan="magnify" xmlns:xlink="http://www.w3.org/1999/xlink" xmlns="http://www.w3.org/2000/svg" style="max-height: 500px" width="207.75000000000003" height="174.74999580600002"><defs><g/></defs><g fill-opacity="1" fill="#292929"><g transform="translate(16.308583, 248.83181)"><g><path d="M 39.171875 -54.671875 C 39.171875 -57.179688 38.28125 -59.582031 36.5 -61.875 C 34.726562 -64.175781 32.457031 -66.554688 29.6875 -69.015625 C 26.914062 -71.472656 23.9375 -74.132812 20.75 -77 C 17.570312 -79.875 14.597656 -83.164062 11.828125 -86.875 C 9.054688 -90.582031 6.78125 -94.890625 5 -99.796875 C 3.226562 -104.703125 2.34375 -110.34375 2.34375 -116.71875 C 2.34375 -125.488281 4.066406 -132.820312 7.515625 -138.71875 C 10.960938 -144.625 15.425781 -149.09375 20.90625 -152.125 C 26.394531 -155.15625 32.171875 -156.671875 38.234375 -156.671875 L 86.328125 -156.671875 L 86.328125 -109.671875 L 73.796875 -109.671875 C 71.703125 -109.671875 69.503906 -109.566406 67.203125 -109.359375 C 64.910156 -109.148438 62.976562 -108.46875 61.40625 -107.3125 C 59.84375 -106.164062 59.0625 -104.128906 59.0625 -101.203125 C 59.0625 -98.703125 59.894531 -96.535156 61.5625 -94.703125 C 63.238281 -92.878906 65.40625 -91.101562 68.0625 -89.375 C 70.726562 -87.65625 73.550781 -85.695312 76.53125 -83.5 C 79.507812 -81.3125 82.328125 -78.648438 84.984375 -75.515625 C 87.648438 -72.378906 89.816406 -68.460938 91.484375 -63.765625 C 93.160156 -59.066406 94 -53.269531 94 -46.375 C 94 -37.394531 92.273438 -29.40625 88.828125 -22.40625 C 85.378906 -15.40625 80.46875 -9.921875 74.09375 -5.953125 C 67.726562 -1.984375 60.160156 0 51.390625 0 L 4.546875 0 L 4.546875 -47 L 22.5625 -47 C 28.09375 -47 32.242188 -47.546875 35.015625 -48.640625 C 37.785156 -49.742188 39.171875 -51.753906 39.171875 -54.671875 Z M 39.171875 -54.671875"/></g></g></g><g fill-opacity="1" fill="#292929"><g transform="translate(97.304538, 248.83181)"><g><path d="M 52.640625 0 L 2.34375 0 L 2.34375 -156.515625 L 52.640625 -156.515625 C 65.066406 -156.515625 75.351562 -153.222656 83.5 -146.640625 C 91.644531 -140.066406 97.726562 -130.898438 101.75 -119.140625 C 105.78125 -107.390625 107.742188 -93.785156 107.640625 -78.328125 C 107.640625 -62.347656 105.285156 -48.484375 100.578125 -36.734375 C 95.878906 -24.984375 89.429688 -15.921875 81.234375 -9.546875 C 73.035156 -3.179688 63.503906 0 52.640625 0 Z M 52.640625 -112.171875 L 49.1875 -112.171875 L 49.1875 -45.75 L 52.640625 -45.75 C 54.097656 -45.75 55.347656 -46.945312 56.390625 -49.34375 C 57.441406 -51.75 58.332031 -54.9375 59.0625 -58.90625 C 59.789062 -62.875 60.285156 -67.207031 60.546875 -71.90625 C 60.816406 -76.613281 60.867188 -81.316406 60.703125 -86.015625 C 60.546875 -90.710938 60.128906 -95.046875 59.453125 -99.015625 C 58.773438 -102.984375 57.890625 -106.164062 56.796875 -108.5625 C 55.703125 -110.96875 54.316406 -112.171875 52.640625 -112.171875 Z M 52.640625 -112.171875"/></g></g></g><g fill-opacity="1" fill="#292929"><g transform="translate(242.827615, 105.191273)"><g><path d="M 3.15625 -9.21875 L 3.15625 -6.453125 L 6.5625 -6.453125 C 6.832031 -6.453125 7.054688 -6.363281 7.234375 -6.1875 C 7.421875 -6.007812 7.515625 -5.785156 7.515625 -5.515625 C 7.515625 -5.285156 7.421875 -5.082031 7.234375 -4.90625 C 7.054688 -4.726562 6.832031 -4.640625 6.5625 -4.640625 L 3.15625 -4.640625 L 3.15625 -0.96875 C 3.15625 -0.6875 3.054688 -0.453125 2.859375 -0.265625 C 2.660156 -0.0859375 2.429688 0 2.171875 0 C 1.878906 0 1.640625 -0.0859375 1.453125 -0.265625 C 1.273438 -0.441406 1.1875 -0.675781 1.1875 -0.96875 L 1.1875 -10.078125 C 1.1875 -10.347656 1.273438 -10.570312 1.453125 -10.75 C 1.640625 -10.9375 1.867188 -11.03125 2.140625 -11.03125 L 7.265625 -11.03125 C 7.535156 -11.03125 7.765625 -10.941406 7.953125 -10.765625 C 8.140625 -10.597656 8.234375 -10.378906 8.234375 -10.109375 C 8.234375 -9.878906 8.140625 -9.671875 7.953125 -9.484375 C 7.765625 -9.304688 7.535156 -9.21875 7.265625 -9.21875 Z M 3.15625 -9.21875"/></g></g></g><g fill-opacity="1" fill="#292929"><g transform="translate(250.822714, 105.191273)"><g><path d="M 9.015625 -11.046875 C 9.285156 -11.046875 9.503906 -10.957031 9.671875 -10.78125 C 9.847656 -10.601562 9.9375 -10.375 9.9375 -10.09375 L 9.9375 -4.390625 C 9.9375 -3.515625 9.75 -2.738281 9.375 -2.0625 C 9.007812 -1.394531 8.492188 -0.867188 7.828125 -0.484375 C 7.171875 -0.109375 6.414062 0.078125 5.5625 0.078125 C 4.707031 0.078125 3.945312 -0.109375 3.28125 -0.484375 C 2.613281 -0.867188 2.097656 -1.394531 1.734375 -2.0625 C 1.367188 -2.738281 1.1875 -3.515625 1.1875 -4.390625 L 1.1875 -10.09375 C 1.1875 -10.363281 1.28125 -10.585938 1.46875 -10.765625 C 1.65625 -10.953125 1.894531 -11.046875 2.1875 -11.046875 C 2.4375 -11.046875 2.65625 -10.953125 2.84375 -10.765625 C 3.039062 -10.585938 3.140625 -10.363281 3.140625 -10.09375 L 3.140625 -4.390625 C 3.140625 -3.878906 3.25 -3.425781 3.46875 -3.03125 C 3.6875 -2.632812 3.984375 -2.332031 4.359375 -2.125 C 4.734375 -1.914062 5.132812 -1.8125 5.5625 -1.8125 C 6.019531 -1.8125 6.441406 -1.914062 6.828125 -2.125 C 7.222656 -2.332031 7.539062 -2.632812 7.78125 -3.03125 C 8.019531 -3.425781 8.140625 -3.878906 8.140625 -4.390625 L 8.140625 -10.09375 C 8.140625 -10.375 8.21875 -10.601562 8.375 -10.78125 C 8.53125 -10.957031 8.742188 -11.046875 9.015625 -11.046875 Z M 9.015625 -11.046875"/></g></g></g><g fill-opacity="1" fill="#292929"><g transform="translate(261.072828, 105.191273)"><g><path d="M 7.265625 -1.84375 C 7.535156 -1.84375 7.765625 -1.753906 7.953125 -1.578125 C 8.140625 -1.410156 8.234375 -1.191406 8.234375 -0.921875 C 8.234375 -0.648438 8.140625 -0.425781 7.953125 -0.25 C 7.765625 -0.0820312 7.535156 0 7.265625 0 L 2.140625 0 C 1.867188 0 1.640625 -0.0859375 1.453125 -0.265625 C 1.273438 -0.453125 1.1875 -0.6875 1.1875 -0.96875 L 1.1875 -10.078125 C 1.1875 -10.347656 1.28125 -10.570312 1.46875 -10.75 C 1.65625 -10.9375 1.894531 -11.03125 2.1875 -11.03125 C 2.445312 -11.03125 2.671875 -10.9375 2.859375 -10.75 C 3.054688 -10.570312 3.15625 -10.347656 3.15625 -10.078125 L 3.15625 -1.84375 Z M 7.265625 -1.84375"/></g></g></g><g fill-opacity="1" fill="#292929"><g transform="translate(269.067928, 105.191273)"><g><path d="M 7.265625 -1.84375 C 7.535156 -1.84375 7.765625 -1.753906 7.953125 -1.578125 C 8.140625 -1.410156 8.234375 -1.191406 8.234375 -0.921875 C 8.234375 -0.648438 8.140625 -0.425781 7.953125 -0.25 C 7.765625 -0.0820312 7.535156 0 7.265625 0 L 2.140625 0 C 1.867188 0 1.640625 -0.0859375 1.453125 -0.265625 C 1.273438 -0.453125 1.1875 -0.6875 1.1875 -0.96875 L 1.1875 -10.078125 C 1.1875 -10.347656 1.28125 -10.570312 1.46875 -10.75 C 1.65625 -10.9375 1.894531 -11.03125 2.1875 -11.03125 C 2.445312 -11.03125 2.671875 -10.9375 2.859375 -10.75 C 3.054688 -10.570312 3.15625 -10.347656 3.15625 -10.078125 L 3.15625 -1.84375 Z M 7.265625 -1.84375"/></g></g></g><g fill-opacity="1" fill="#292929"><g transform="translate(277.063027, 105.191273)"><g><path d="M 4.734375 0.15625 C 3.972656 0.15625 3.296875 0.0625 2.703125 -0.125 C 2.117188 -0.3125 1.570312 -0.632812 1.0625 -1.09375 C 0.769531 -1.34375 0.625 -1.617188 0.625 -1.921875 C 0.625 -2.160156 0.710938 -2.375 0.890625 -2.5625 C 1.078125 -2.75 1.296875 -2.84375 1.546875 -2.84375 C 1.742188 -2.84375 1.921875 -2.78125 2.078125 -2.65625 C 2.503906 -2.300781 2.914062 -2.046875 3.3125 -1.890625 C 3.707031 -1.734375 4.179688 -1.65625 4.734375 -1.65625 C 5.316406 -1.65625 5.820312 -1.785156 6.25 -2.046875 C 6.675781 -2.304688 6.890625 -2.632812 6.890625 -3.03125 C 6.890625 -3.5 6.675781 -3.867188 6.25 -4.140625 C 5.832031 -4.410156 5.164062 -4.613281 4.25 -4.75 C 1.945312 -5.082031 0.796875 -6.15625 0.796875 -7.96875 C 0.796875 -8.625 0.96875 -9.195312 1.3125 -9.6875 C 1.664062 -10.175781 2.140625 -10.546875 2.734375 -10.796875 C 3.335938 -11.054688 4.007812 -11.1875 4.75 -11.1875 C 5.40625 -11.1875 6.023438 -11.085938 6.609375 -10.890625 C 7.191406 -10.691406 7.679688 -10.429688 8.078125 -10.109375 C 8.378906 -9.867188 8.53125 -9.585938 8.53125 -9.265625 C 8.53125 -9.023438 8.441406 -8.8125 8.265625 -8.625 C 8.085938 -8.445312 7.875 -8.359375 7.625 -8.359375 C 7.46875 -8.359375 7.328125 -8.40625 7.203125 -8.5 C 6.929688 -8.71875 6.550781 -8.914062 6.0625 -9.09375 C 5.570312 -9.28125 5.132812 -9.375 4.75 -9.375 C 4.082031 -9.375 3.566406 -9.25 3.203125 -9 C 2.847656 -8.757812 2.671875 -8.441406 2.671875 -8.046875 C 2.671875 -7.585938 2.851562 -7.242188 3.21875 -7.015625 C 3.59375 -6.785156 4.179688 -6.597656 4.984375 -6.453125 C 5.890625 -6.296875 6.613281 -6.09375 7.15625 -5.84375 C 7.695312 -5.59375 8.101562 -5.253906 8.375 -4.828125 C 8.644531 -4.398438 8.78125 -3.835938 8.78125 -3.140625 C 8.78125 -2.472656 8.59375 -1.890625 8.21875 -1.390625 C 7.84375 -0.890625 7.34375 -0.503906 6.71875 -0.234375 C 6.101562 0.0234375 5.441406 0.15625 4.734375 0.15625 Z M 4.734375 0.15625"/></g></g></g><g fill-opacity="1" fill="#292929"><g transform="translate(285.610049, 105.191273)"><g><path d="M 8.4375 -11.03125 C 8.71875 -11.03125 8.945312 -10.945312 9.125 -10.78125 C 9.300781 -10.613281 9.390625 -10.394531 9.390625 -10.125 C 9.390625 -9.851562 9.300781 -9.632812 9.125 -9.46875 C 8.945312 -9.300781 8.71875 -9.21875 8.4375 -9.21875 L 5.953125 -9.21875 L 5.953125 -0.96875 C 5.953125 -0.6875 5.851562 -0.453125 5.65625 -0.265625 C 5.457031 -0.0859375 5.210938 0 4.921875 0 C 4.628906 0 4.382812 -0.0859375 4.1875 -0.265625 C 4 -0.453125 3.90625 -0.6875 3.90625 -0.96875 L 3.90625 -9.21875 L 1.4375 -9.21875 C 1.15625 -9.21875 0.921875 -9.300781 0.734375 -9.46875 C 0.554688 -9.644531 0.46875 -9.867188 0.46875 -10.140625 C 0.46875 -10.398438 0.5625 -10.613281 0.75 -10.78125 C 0.9375 -10.945312 1.164062 -11.03125 1.4375 -11.03125 Z M 8.4375 -11.03125"/></g></g></g><g fill-opacity="1" fill="#292929"><g transform="translate(294.614391, 105.191273)"><g><path d="M 9.84375 -1.234375 C 9.894531 -1.097656 9.921875 -0.96875 9.921875 -0.84375 C 9.921875 -0.570312 9.828125 -0.347656 9.640625 -0.171875 C 9.460938 -0.00390625 9.257812 0.078125 9.03125 0.078125 C 8.84375 0.078125 8.671875 0.0195312 8.515625 -0.09375 C 8.367188 -0.207031 8.253906 -0.363281 8.171875 -0.5625 L 7.34375 -2.46875 L 2.65625 -2.46875 L 1.828125 -0.546875 C 1.753906 -0.347656 1.640625 -0.191406 1.484375 -0.078125 C 1.335938 0.0234375 1.175781 0.078125 1 0.078125 C 0.71875 0.078125 0.503906 0.00390625 0.359375 -0.140625 C 0.222656 -0.285156 0.15625 -0.484375 0.15625 -0.734375 C 0.15625 -0.835938 0.171875 -0.941406 0.203125 -1.046875 L 4.125 -10.46875 C 4.207031 -10.675781 4.332031 -10.835938 4.5 -10.953125 C 4.675781 -11.066406 4.867188 -11.113281 5.078125 -11.09375 C 5.265625 -11.09375 5.4375 -11.035156 5.59375 -10.921875 C 5.757812 -10.816406 5.878906 -10.664062 5.953125 -10.46875 Z M 3.421875 -4.28125 L 6.578125 -4.28125 L 4.984375 -7.984375 Z M 3.421875 -4.28125"/></g></g></g><g fill-opacity="1" fill="#292929"><g transform="translate(303.823741, 105.191273)"><g><path d="M 8.90625 -10.5 C 9.226562 -10.332031 9.390625 -10.066406 9.390625 -9.703125 C 9.390625 -9.472656 9.3125 -9.253906 9.15625 -9.046875 C 8.988281 -8.828125 8.773438 -8.71875 8.515625 -8.71875 C 8.335938 -8.71875 8.160156 -8.765625 7.984375 -8.859375 C 7.460938 -9.097656 6.90625 -9.21875 6.3125 -9.21875 C 5.570312 -9.21875 4.925781 -9.0625 4.375 -8.75 C 3.832031 -8.445312 3.414062 -8.015625 3.125 -7.453125 C 2.832031 -6.890625 2.6875 -6.242188 2.6875 -5.515625 C 2.6875 -4.273438 3.019531 -3.332031 3.6875 -2.6875 C 4.351562 -2.050781 5.226562 -1.734375 6.3125 -1.734375 C 6.945312 -1.734375 7.503906 -1.851562 7.984375 -2.09375 C 8.171875 -2.175781 8.335938 -2.21875 8.484375 -2.21875 C 8.753906 -2.21875 8.984375 -2.101562 9.171875 -1.875 C 9.328125 -1.675781 9.40625 -1.460938 9.40625 -1.234375 C 9.40625 -1.066406 9.363281 -0.910156 9.28125 -0.765625 C 9.195312 -0.628906 9.078125 -0.523438 8.921875 -0.453125 C 8.097656 -0.046875 7.226562 0.15625 6.3125 0.15625 C 5.28125 0.15625 4.332031 -0.0625 3.46875 -0.5 C 2.601562 -0.9375 1.910156 -1.578125 1.390625 -2.421875 C 0.878906 -3.273438 0.625 -4.304688 0.625 -5.515625 C 0.625 -6.585938 0.867188 -7.550781 1.359375 -8.40625 C 1.847656 -9.257812 2.523438 -9.921875 3.390625 -10.390625 C 4.253906 -10.867188 5.226562 -11.109375 6.3125 -11.109375 C 7.238281 -11.109375 8.101562 -10.90625 8.90625 -10.5 Z M 8.90625 -10.5"/></g></g></g><g fill-opacity="1" fill="#292929"><g transform="translate(312.843844, 105.191273)"><g><path d="M 9.640625 -1.640625 C 9.703125 -1.554688 9.753906 -1.453125 9.796875 -1.328125 C 9.835938 -1.210938 9.859375 -1.101562 9.859375 -1 C 9.859375 -0.707031 9.75 -0.46875 9.53125 -0.28125 C 9.3125 -0.09375 9.0625 0 8.78125 0 C 8.644531 0 8.515625 -0.03125 8.390625 -0.09375 C 8.265625 -0.15625 8.160156 -0.242188 8.078125 -0.359375 L 4.65625 -4.875 L 3.15625 -3.4375 L 3.15625 -0.96875 C 3.15625 -0.675781 3.0625 -0.441406 2.875 -0.265625 C 2.6875 -0.0859375 2.445312 0 2.15625 0 C 1.875 0 1.640625 -0.0859375 1.453125 -0.265625 C 1.273438 -0.453125 1.1875 -0.6875 1.1875 -0.96875 L 1.1875 -10.078125 C 1.1875 -10.347656 1.28125 -10.570312 1.46875 -10.75 C 1.65625 -10.9375 1.894531 -11.03125 2.1875 -11.03125 C 2.46875 -11.03125 2.695312 -10.941406 2.875 -10.765625 C 3.0625 -10.585938 3.15625 -10.359375 3.15625 -10.078125 L 3.15625 -5.78125 L 8.203125 -10.75 C 8.441406 -10.988281 8.695312 -11.109375 8.96875 -11.109375 C 9.207031 -11.109375 9.410156 -11.007812 9.578125 -10.8125 C 9.753906 -10.613281 9.84375 -10.40625 9.84375 -10.1875 C 9.84375 -9.96875 9.742188 -9.757812 9.546875 -9.5625 L 6.109375 -6.296875 Z M 9.640625 -1.640625"/></g></g></g><g fill-opacity="1" fill="#292929"><g transform="translate(322.310633, 105.191273)"><g/></g></g><g fill-opacity="1" fill="#292929"><g transform="translate(325.858766, 105.191273)"><g/></g></g><g fill-opacity="1" fill="#292929"><g transform="translate(329.415031, 105.191273)"><g><path d="M 5.90625 -11.03125 C 6.894531 -11.03125 7.742188 -10.785156 8.453125 -10.296875 C 9.160156 -9.804688 9.703125 -9.144531 10.078125 -8.3125 C 10.453125 -7.476562 10.640625 -6.546875 10.640625 -5.515625 C 10.640625 -4.484375 10.453125 -3.550781 10.078125 -2.71875 C 9.703125 -1.882812 9.160156 -1.222656 8.453125 -0.734375 C 7.742188 -0.242188 6.894531 0 5.90625 0 L 2.140625 0 C 1.867188 0 1.640625 -0.0859375 1.453125 -0.265625 C 1.273438 -0.453125 1.1875 -0.6875 1.1875 -0.96875 L 1.1875 -10.078125 C 1.1875 -10.347656 1.273438 -10.570312 1.453125 -10.75 C 1.640625 -10.9375 1.867188 -11.03125 2.140625 -11.03125 Z M 5.75 -1.8125 C 6.695312 -1.8125 7.40625 -2.160156 7.875 -2.859375 C 8.351562 -3.554688 8.59375 -4.441406 8.59375 -5.515625 C 8.59375 -6.585938 8.351562 -7.472656 7.875 -8.171875 C 7.394531 -8.867188 6.6875 -9.21875 5.75 -9.21875 L 3.15625 -9.21875 L 3.15625 -1.8125 Z M 5.75 -1.8125"/></g></g></g><g fill-opacity="1" fill="#292929"><g transform="translate(339.822851, 105.191273)"><g><path d="M 7.421875 -1.8125 C 7.691406 -1.8125 7.921875 -1.71875 8.109375 -1.53125 C 8.296875 -1.351562 8.390625 -1.144531 8.390625 -0.90625 C 8.390625 -0.632812 8.296875 -0.414062 8.109375 -0.25 C 7.921875 -0.0820312 7.691406 0 7.421875 0 L 2.140625 0 C 1.867188 0 1.640625 -0.0859375 1.453125 -0.265625 C 1.273438 -0.453125 1.1875 -0.6875 1.1875 -0.96875 L 1.1875 -10.078125 C 1.1875 -10.347656 1.273438 -10.570312 1.453125 -10.75 C 1.640625 -10.9375 1.867188 -11.03125 2.140625 -11.03125 L 7.421875 -11.03125 C 7.691406 -11.03125 7.921875 -10.941406 8.109375 -10.765625 C 8.296875 -10.597656 8.390625 -10.378906 8.390625 -10.109375 C 8.390625 -9.847656 8.296875 -9.632812 8.109375 -9.46875 C 7.929688 -9.300781 7.703125 -9.21875 7.421875 -9.21875 L 3.15625 -9.21875 L 3.15625 -6.546875 L 6.71875 -6.546875 C 6.988281 -6.546875 7.210938 -6.457031 7.390625 -6.28125 C 7.578125 -6.101562 7.671875 -5.878906 7.671875 -5.609375 C 7.671875 -5.347656 7.582031 -5.132812 7.40625 -4.96875 C 7.226562 -4.8125 7 -4.734375 6.71875 -4.734375 L 3.15625 -4.734375 L 3.15625 -1.8125 Z M 7.421875 -1.8125"/></g></g></g><g fill-opacity="1" fill="#292929"><g transform="translate(347.975637, 105.191273)"><g><path d="M 9.234375 -11.0625 C 9.503906 -11.0625 9.734375 -10.972656 9.921875 -10.796875 C 10.117188 -10.617188 10.21875 -10.40625 10.21875 -10.15625 C 10.21875 -10.019531 10.1875 -9.878906 10.125 -9.734375 L 6.234375 -0.609375 C 6.128906 -0.410156 5.992188 -0.257812 5.828125 -0.15625 C 5.660156 -0.0507812 5.484375 0 5.296875 0 C 5.117188 -0.0078125 4.953125 -0.0625 4.796875 -0.15625 C 4.648438 -0.257812 4.535156 -0.40625 4.453125 -0.59375 L 0.546875 -9.75 C 0.492188 -9.851562 0.46875 -9.984375 0.46875 -10.140625 C 0.46875 -10.421875 0.570312 -10.644531 0.78125 -10.8125 C 1 -10.988281 1.21875 -11.078125 1.4375 -11.078125 C 1.613281 -11.078125 1.78125 -11.023438 1.9375 -10.921875 C 2.09375 -10.816406 2.210938 -10.664062 2.296875 -10.46875 L 5.46875 -3.015625 L 8.375 -10.46875 C 8.457031 -10.65625 8.578125 -10.800781 8.734375 -10.90625 C 8.890625 -11.007812 9.054688 -11.0625 9.234375 -11.0625 Z M 9.234375 -11.0625"/></g></g></g><g fill-opacity="1" fill="#292929"><g transform="translate(244.493, 119.147776)"><g><path d="M 7.421875 -1.8125 C 7.691406 -1.8125 7.921875 -1.71875 8.109375 -1.53125 C 8.296875 -1.351562 8.390625 -1.144531 8.390625 -0.90625 C 8.390625 -0.632812 8.296875 -0.414062 8.109375 -0.25 C 7.921875 -0.0820312 7.691406 0 7.421875 0 L 2.140625 0 C 1.867188 0 1.640625 -0.0859375 1.453125 -0.265625 C 1.273438 -0.453125 1.1875 -0.6875 1.1875 -0.96875 L 1.1875 -10.078125 C 1.1875 -10.347656 1.273438 -10.570312 1.453125 -10.75 C 1.640625 -10.9375 1.867188 -11.03125 2.140625 -11.03125 L 7.421875 -11.03125 C 7.691406 -11.03125 7.921875 -10.941406 8.109375 -10.765625 C 8.296875 -10.597656 8.390625 -10.378906 8.390625 -10.109375 C 8.390625 -9.847656 8.296875 -9.632812 8.109375 -9.46875 C 7.929688 -9.300781 7.703125 -9.21875 7.421875 -9.21875 L 3.15625 -9.21875 L 3.15625 -6.546875 L 6.71875 -6.546875 C 6.988281 -6.546875 7.210938 -6.457031 7.390625 -6.28125 C 7.578125 -6.101562 7.671875 -5.878906 7.671875 -5.609375 C 7.671875 -5.347656 7.582031 -5.132812 7.40625 -4.96875 C 7.226562 -4.8125 7 -4.734375 6.71875 -4.734375 L 3.15625 -4.734375 L 3.15625 -1.8125 Z M 7.421875 -1.8125"/></g></g></g><g fill-opacity="1" fill="#292929"><g transform="translate(252.645786, 119.147776)"><g><path d="M 4.734375 0.15625 C 3.972656 0.15625 3.296875 0.0625 2.703125 -0.125 C 2.117188 -0.3125 1.570312 -0.632812 1.0625 -1.09375 C 0.769531 -1.34375 0.625 -1.617188 0.625 -1.921875 C 0.625 -2.160156 0.710938 -2.375 0.890625 -2.5625 C 1.078125 -2.75 1.296875 -2.84375 1.546875 -2.84375 C 1.742188 -2.84375 1.921875 -2.78125 2.078125 -2.65625 C 2.503906 -2.300781 2.914062 -2.046875 3.3125 -1.890625 C 3.707031 -1.734375 4.179688 -1.65625 4.734375 -1.65625 C 5.316406 -1.65625 5.820312 -1.785156 6.25 -2.046875 C 6.675781 -2.304688 6.890625 -2.632812 6.890625 -3.03125 C 6.890625 -3.5 6.675781 -3.867188 6.25 -4.140625 C 5.832031 -4.410156 5.164062 -4.613281 4.25 -4.75 C 1.945312 -5.082031 0.796875 -6.15625 0.796875 -7.96875 C 0.796875 -8.625 0.96875 -9.195312 1.3125 -9.6875 C 1.664062 -10.175781 2.140625 -10.546875 2.734375 -10.796875 C 3.335938 -11.054688 4.007812 -11.1875 4.75 -11.1875 C 5.40625 -11.1875 6.023438 -11.085938 6.609375 -10.890625 C 7.191406 -10.691406 7.679688 -10.429688 8.078125 -10.109375 C 8.378906 -9.867188 8.53125 -9.585938 8.53125 -9.265625 C 8.53125 -9.023438 8.441406 -8.8125 8.265625 -8.625 C 8.085938 -8.445312 7.875 -8.359375 7.625 -8.359375 C 7.46875 -8.359375 7.328125 -8.40625 7.203125 -8.5 C 6.929688 -8.71875 6.550781 -8.914062 6.0625 -9.09375 C 5.570312 -9.28125 5.132812 -9.375 4.75 -9.375 C 4.082031 -9.375 3.566406 -9.25 3.203125 -9 C 2.847656 -8.757812 2.671875 -8.441406 2.671875 -8.046875 C 2.671875 -7.585938 2.851562 -7.242188 3.21875 -7.015625 C 3.59375 -6.785156 4.179688 -6.597656 4.984375 -6.453125 C 5.890625 -6.296875 6.613281 -6.09375 7.15625 -5.84375 C 7.695312 -5.59375 8.101562 -5.253906 8.375 -4.828125 C 8.644531 -4.398438 8.78125 -3.835938 8.78125 -3.140625 C 8.78125 -2.472656 8.59375 -1.890625 8.21875 -1.390625 C 7.84375 -0.890625 7.34375 -0.503906 6.71875 -0.234375 C 6.101562 0.0234375 5.441406 0.15625 4.734375 0.15625 Z M 4.734375 0.15625"/></g></g></g><g fill-opacity="1" fill="#292929"><g transform="translate(261.192808, 119.147776)"><g><path d="M 8.4375 -11.03125 C 8.71875 -11.03125 8.945312 -10.945312 9.125 -10.78125 C 9.300781 -10.613281 9.390625 -10.394531 9.390625 -10.125 C 9.390625 -9.851562 9.300781 -9.632812 9.125 -9.46875 C 8.945312 -9.300781 8.71875 -9.21875 8.4375 -9.21875 L 5.953125 -9.21875 L 5.953125 -0.96875 C 5.953125 -0.6875 5.851562 -0.453125 5.65625 -0.265625 C 5.457031 -0.0859375 5.210938 0 4.921875 0 C 4.628906 0 4.382812 -0.0859375 4.1875 -0.265625 C 4 -0.453125 3.90625 -0.6875 3.90625 -0.96875 L 3.90625 -9.21875 L 1.4375 -9.21875 C 1.15625 -9.21875 0.921875 -9.300781 0.734375 -9.46875 C 0.554688 -9.644531 0.46875 -9.867188 0.46875 -10.140625 C 0.46875 -10.398438 0.5625 -10.613281 0.75 -10.78125 C 0.9375 -10.945312 1.164062 -11.03125 1.4375 -11.03125 Z M 8.4375 -11.03125"/></g></g></g><g fill-opacity="1" fill="#292929"><g transform="translate(270.19715, 119.147776)"><g><path d="M 5.90625 -11.03125 C 6.894531 -11.03125 7.742188 -10.785156 8.453125 -10.296875 C 9.160156 -9.804688 9.703125 -9.144531 10.078125 -8.3125 C 10.453125 -7.476562 10.640625 -6.546875 10.640625 -5.515625 C 10.640625 -4.484375 10.453125 -3.550781 10.078125 -2.71875 C 9.703125 -1.882812 9.160156 -1.222656 8.453125 -0.734375 C 7.742188 -0.242188 6.894531 0 5.90625 0 L 2.140625 0 C 1.867188 0 1.640625 -0.0859375 1.453125 -0.265625 C 1.273438 -0.453125 1.1875 -0.6875 1.1875 -0.96875 L 1.1875 -10.078125 C 1.1875 -10.347656 1.273438 -10.570312 1.453125 -10.75 C 1.640625 -10.9375 1.867188 -11.03125 2.140625 -11.03125 Z M 5.75 -1.8125 C 6.695312 -1.8125 7.40625 -2.160156 7.875 -2.859375 C 8.351562 -3.554688 8.59375 -4.441406 8.59375 -5.515625 C 8.59375 -6.585938 8.351562 -7.472656 7.875 -8.171875 C 7.394531 -8.867188 6.6875 -9.21875 5.75 -9.21875 L 3.15625 -9.21875 L 3.15625 -1.8125 Z M 5.75 -1.8125"/></g></g></g><g fill-opacity="1" fill="#292929"><g transform="translate(280.60497, 119.147776)"><g/></g></g><g fill-opacity="1" fill="#292929"><g transform="translate(284.153104, 119.147776)"><g><path d="M 7.09375 -1.734375 C 7.34375 -1.734375 7.550781 -1.648438 7.71875 -1.484375 C 7.894531 -1.316406 7.984375 -1.101562 7.984375 -0.84375 C 7.984375 -0.601562 7.894531 -0.398438 7.71875 -0.234375 C 7.550781 -0.078125 7.34375 0 7.09375 0 L 1.734375 0 C 1.460938 0 1.242188 -0.0820312 1.078125 -0.25 C 0.921875 -0.414062 0.84375 -0.632812 0.84375 -0.90625 C 0.84375 -1.164062 0.941406 -1.394531 1.140625 -1.59375 L 4.578125 -5.265625 C 4.960938 -5.679688 5.265625 -6.101562 5.484375 -6.53125 C 5.710938 -6.957031 5.828125 -7.347656 5.828125 -7.703125 C 5.828125 -8.179688 5.660156 -8.59375 5.328125 -8.9375 C 4.992188 -9.28125 4.601562 -9.453125 4.15625 -9.453125 C 3.851562 -9.453125 3.546875 -9.347656 3.234375 -9.140625 C 2.929688 -8.941406 2.648438 -8.675781 2.390625 -8.34375 C 2.203125 -8.09375 1.960938 -7.96875 1.671875 -7.96875 C 1.441406 -7.96875 1.226562 -8.054688 1.03125 -8.234375 C 0.832031 -8.410156 0.734375 -8.609375 0.734375 -8.828125 C 0.734375 -8.984375 0.785156 -9.140625 0.890625 -9.296875 C 1.003906 -9.460938 1.164062 -9.65625 1.375 -9.875 C 1.769531 -10.269531 2.226562 -10.585938 2.75 -10.828125 C 3.28125 -11.066406 3.785156 -11.1875 4.265625 -11.1875 C 4.960938 -11.1875 5.570312 -11.039062 6.09375 -10.75 C 6.625 -10.457031 7.03125 -10.050781 7.3125 -9.53125 C 7.59375 -9.019531 7.734375 -8.4375 7.734375 -7.78125 C 7.734375 -7.144531 7.5625 -6.488281 7.21875 -5.8125 C 6.882812 -5.132812 6.425781 -4.484375 5.84375 -3.859375 L 3.84375 -1.734375 Z M 7.09375 -1.734375"/></g></g></g><g fill-opacity="1" fill="#292929"><g transform="translate(291.738206, 119.147776)"><g><path d="M 4.84375 0.15625 C 3.957031 0.15625 3.195312 -0.078125 2.5625 -0.546875 C 1.925781 -1.023438 1.441406 -1.691406 1.109375 -2.546875 C 0.785156 -3.398438 0.625 -4.390625 0.625 -5.515625 C 0.625 -6.640625 0.785156 -7.628906 1.109375 -8.484375 C 1.441406 -9.347656 1.925781 -10.015625 2.5625 -10.484375 C 3.195312 -10.953125 3.957031 -11.1875 4.84375 -11.1875 C 5.726562 -11.1875 6.488281 -10.953125 7.125 -10.484375 C 7.757812 -10.015625 8.238281 -9.347656 8.5625 -8.484375 C 8.882812 -7.628906 9.046875 -6.640625 9.046875 -5.515625 C 9.046875 -4.390625 8.882812 -3.398438 8.5625 -2.546875 C 8.238281 -1.691406 7.757812 -1.023438 7.125 -0.546875 C 6.488281 -0.078125 5.726562 0.15625 4.84375 0.15625 Z M 4.84375 -1.734375 C 5.507812 -1.734375 6.035156 -2.050781 6.421875 -2.6875 C 6.804688 -3.332031 7 -4.273438 7 -5.515625 C 7 -6.753906 6.804688 -7.691406 6.421875 -8.328125 C 6.035156 -8.972656 5.507812 -9.296875 4.84375 -9.296875 C 4.164062 -9.296875 3.632812 -8.972656 3.25 -8.328125 C 2.875 -7.691406 2.6875 -6.753906 2.6875 -5.515625 C 2.6875 -4.273438 2.875 -3.332031 3.25 -2.6875 C 3.632812 -2.050781 4.164062 -1.734375 4.84375 -1.734375 Z M 4.84375 -1.734375"/></g></g></g><g fill-opacity="1" fill="#292929"><g transform="translate(300.55332, 119.147776)"><g><path d="M 7.09375 -1.734375 C 7.34375 -1.734375 7.550781 -1.648438 7.71875 -1.484375 C 7.894531 -1.316406 7.984375 -1.101562 7.984375 -0.84375 C 7.984375 -0.601562 7.894531 -0.398438 7.71875 -0.234375 C 7.550781 -0.078125 7.34375 0 7.09375 0 L 1.734375 0 C 1.460938 0 1.242188 -0.0820312 1.078125 -0.25 C 0.921875 -0.414062 0.84375 -0.632812 0.84375 -0.90625 C 0.84375 -1.164062 0.941406 -1.394531 1.140625 -1.59375 L 4.578125 -5.265625 C 4.960938 -5.679688 5.265625 -6.101562 5.484375 -6.53125 C 5.710938 -6.957031 5.828125 -7.347656 5.828125 -7.703125 C 5.828125 -8.179688 5.660156 -8.59375 5.328125 -8.9375 C 4.992188 -9.28125 4.601562 -9.453125 4.15625 -9.453125 C 3.851562 -9.453125 3.546875 -9.347656 3.234375 -9.140625 C 2.929688 -8.941406 2.648438 -8.675781 2.390625 -8.34375 C 2.203125 -8.09375 1.960938 -7.96875 1.671875 -7.96875 C 1.441406 -7.96875 1.226562 -8.054688 1.03125 -8.234375 C 0.832031 -8.410156 0.734375 -8.609375 0.734375 -8.828125 C 0.734375 -8.984375 0.785156 -9.140625 0.890625 -9.296875 C 1.003906 -9.460938 1.164062 -9.65625 1.375 -9.875 C 1.769531 -10.269531 2.226562 -10.585938 2.75 -10.828125 C 3.28125 -11.066406 3.785156 -11.1875 4.265625 -11.1875 C 4.960938 -11.1875 5.570312 -11.039062 6.09375 -10.75 C 6.625 -10.457031 7.03125 -10.050781 7.3125 -9.53125 C 7.59375 -9.019531 7.734375 -8.4375 7.734375 -7.78125 C 7.734375 -7.144531 7.5625 -6.488281 7.21875 -5.8125 C 6.882812 -5.132812 6.425781 -4.484375 5.84375 -3.859375 L 3.84375 -1.734375 Z M 7.09375 -1.734375"/></g></g></g><g fill-opacity="1" fill="#292929"><g transform="translate(308.138422, 119.147776)"><g><path d="M 3.625 -11.03125 C 3.882812 -11.03125 4.101562 -10.9375 4.28125 -10.75 C 4.46875 -10.570312 4.5625 -10.347656 4.5625 -10.078125 L 4.5625 -0.96875 C 4.5625 -0.6875 4.457031 -0.453125 4.25 -0.265625 C 4.050781 -0.0859375 3.804688 0 3.515625 0 C 3.222656 0 2.976562 -0.0859375 2.78125 -0.265625 C 2.59375 -0.453125 2.5 -0.6875 2.5 -0.96875 L 2.5 -8.4375 L 1.53125 -7.828125 C 1.375 -7.734375 1.207031 -7.6875 1.03125 -7.6875 C 0.757812 -7.6875 0.53125 -7.785156 0.34375 -7.984375 C 0.164062 -8.191406 0.078125 -8.414062 0.078125 -8.65625 C 0.078125 -8.820312 0.117188 -8.976562 0.203125 -9.125 C 0.296875 -9.269531 0.414062 -9.382812 0.5625 -9.46875 L 2.953125 -10.890625 C 3.128906 -10.984375 3.351562 -11.03125 3.625 -11.03125 Z M 3.625 -11.03125"/></g></g></g></svg>